<mxfile host="app.diagrams.net" modified="2024-06-25T17:30:29.262Z" agent="Mozilla/5.0 (Windows NT 10.0; Win64; x64; rv:127.0) Gecko/20100101 Firefox/127.0" version="24.6.3" etag="4lPQc2oiLN8PEjYEJfqU" type="github">
  <diagram name="Page-1" id="uobpP5keh15hHktpZvG5">
    <mxGraphModel>
      <root>
        <mxCell id="0" />
        <mxCell id="1" parent="0" />
      </root>
    </mxGraphModel>
  </diagram>
</mxfile>
